@startuml
!theme cloudscape-design
title BIST
top to bottom direction
skinparam linetype ortho
skinparam wrapWidth 250
scale max 1200 width
skinparam packageStyle folder
skinparam classAttributeIconSize 0
skinparam groupInheritance 2
package "App (default)" as App {
  class "MainActivity"
}

package "Model (test)" as Model {
  class "BluetoothTest"
  class "CpuTest"
  class "EthernetTest"
  class "HdmiTest"
  class "MemoryTest"
  class "RcuTest"
  interface "Test"
  class "UsbTest"
  class "VideoTest"
  class "WifiTest"
}

package "Util (util)" as Util {
  class "LogRepository"
  class "ServiceUtils"
  class "SysInfo"
  class "UsbDetachReceiver"
}

package "View (fragment)" as View {
  class "BluetoothTestFragment"
  class "BluetoothTestViewModelFactory"
  class "CpuTestFragment"
  class "CpuTestViewModelFactory"
  class "EthernetTestFragment"
  class "HdmiTestFragment"
  class "MemoryTestFragment"
  class "MemoryTestViewModelFactory"
  class "RcuTestFragment"
  class "UsbTestFragment"
  class "UsbTestViewModelFactory"
  class "VideoTestFragment"
  class "WifiTestFragment"
  class "WifiTestViewModelFactory"
}

package "ViewModel (viewmodel)" as ViewModel {
  class "BaseTestViewModel"
  class "BluetoothTestViewModel"
  class "CpuTestViewModel"
  class "EthernetTestViewModel"
  class "HdmiTestViewModel"
  class "MainViewModel"
  class "MemoryTestViewModel"
  class "RcuTestViewModel"
  class "UsbTestViewModel"
  class "VideoTestViewModel"
  class "WifiTestViewModel"
}

' --- Architecture Level Relations ---
View ..> ViewModel : uses
ViewModel ..> Model : uses
ViewModel ..> Util : uses
App ..> ViewModel : uses

' Vertical Layout Alignment
View -[hidden]down-> ViewModel
ViewModel -[hidden]down-> Model
Model -[hidden]down- Util

' --- Key Inheritance & Implementation ---
Model.Test <|.. Model.BluetoothTest
Model.Test <|.. Model.CpuTest
Model.Test <|.. Model.EthernetTest
Model.Test <|.. Model.HdmiTest
Model.Test <|.. Model.MemoryTest
Model.Test <|.. Model.RcuTest
Model.Test <|.. Model.UsbTest
Model.Test <|.. Model.VideoTest
Model.Test <|.. Model.WifiTest
ViewModel.BaseTestViewModel <|-- ViewModel.BluetoothTestViewModel
ViewModel.BaseTestViewModel <|-- ViewModel.CpuTestViewModel
ViewModel.BaseTestViewModel <|-- ViewModel.EthernetTestViewModel
ViewModel.BaseTestViewModel <|-- ViewModel.HdmiTestViewModel
ViewModel.BaseTestViewModel <|-- ViewModel.MemoryTestViewModel
ViewModel.BaseTestViewModel <|-- ViewModel.RcuTestViewModel
ViewModel.BaseTestViewModel <|-- ViewModel.UsbTestViewModel
ViewModel.BaseTestViewModel <|-- ViewModel.VideoTestViewModel
ViewModel.BaseTestViewModel <|-- ViewModel.WifiTestViewModel

@enduml
